<svg xmlns="http://www.w3.org/2000/svg" width="30" height="27" viewBox="0 0 30 27">
    <path fill="#0B63CE" fill-rule="nonzero" d="M2.051 14.697C.796 13.132.091 11.26.091 9.327.092 4.234 4.746.092 10.47.092c4.653 0 8.572 2.73 9.888 6.474-.337-.03-.673-.03-1.04-.03-.307 0-.613 0-.919.03-1.255-2.73-4.347-4.664-7.96-4.664-4.714 0-8.57 3.314-8.57 7.425 0 1.688.642 3.283 1.867 4.633l.367.4-.184.52c-.153.43-.367.86-.642 1.197a4.302 4.302 0 0 0 1.56-.552l.46-.276.46.245c.428.246.856.43 1.315.614-.06.49-.122.982-.122 1.503v.369a9.827 9.827 0 0 1-1.653-.675c-.827.398-1.745.582-2.725.582-.336 0-.673-.03-1.01-.06-.49-.062-.857-.43-.98-.89-.122-.492.092-.952.49-1.228.429-.245.735-.583.98-1.012zm27.857 2.914c0 2.21-.888 4.234-2.357 5.83.276.736.765 1.565 1.684 2.178.214.154.153.491-.123.522-.949.123-2.54.153-4.04-.736-1.654.95-3.643 1.503-5.756 1.503-5.847 0-10.592-4.173-10.592-9.297 0-5.123 4.745-9.296 10.592-9.296s10.592 4.173 10.592 9.296zm-9.857 3.069a.419.419 0 0 0-.429-.43h-1.071a.419.419 0 0 0-.429.43v.705c0 .246.184.43.429.43h1.071a.419.419 0 0 0 .429-.43v-.705zm2.112-4.725c0-.768-.245-1.381-.765-1.841-.52-.46-1.225-.675-2.112-.675-.827 0-1.5.184-2.02.583-.46.337-.705.859-.735 1.503 0 .153.122.276.275.276l1.225.03a.46.46 0 0 0 .428-.306.737.737 0 0 1 .214-.368.928.928 0 0 1 .643-.246c.306 0 .551.092.735.277.184.184.245.429.245.767 0 .306-.061.583-.214.797-.153.215-.337.43-.582.583-.49.338-.827.645-1.01.92-.153.215-.245.492-.276.86-.03.184.123.307.306.307h1.317c.153 0 .275-.123.306-.277.03-.184.061-.337.122-.49.092-.185.245-.369.49-.522a3.118 3.118 0 0 0 1.072-.92c.183-.338.336-.798.336-1.258z"/>
</svg>
