<svg xmlns="http://www.w3.org/2000/svg" width="37" height="37" viewBox="0 0 37 37">
    <g fill="#FFF" fill-rule="evenodd">
        <path d="M20.303 0c.208.057.417.116.628.17 4.371 1.131 7.644 3.6 9.148 8.115.648 1.945.215 3.853-.602 5.653-.407.895-.765 1.835-1.413 2.601-.185.22-.307.505-.66.64.45-4.107.328-8.138-2.477-11.37C22.253 2.728 18.804.973 14.536.748 15.333.17 16.152.34 16.808 0h3.495M37 20.186c-.306.14-.268.448-.328.706-.915 3.984-3.148 6.912-6.768 8.742-2.435 1.232-4.824.83-7.16-.252-.796-.368-1.593-.777-2.3-1.328-.214-.166-.453-.297-.623-.636.4-.084.746.008 1.096.032 3.362.236 6.721.068 9.537-1.989 2.884-2.107 4.57-5.152 5.338-8.689.155-.72.25-1.455.382-2.236.576.607.218 1.53.826 2.052v3.598M0 16.826c.43-2.067 1.15-4.01 2.422-5.71 1.664-2.224 3.885-3.622 6.5-4.38.964-.277 1.972-.05 2.916.152 1.965.416 3.682 1.417 5.34 2.68C7.636 8.575 2.13 12.83.637 22.464c-.435-.64-.328-1.413-.636-2.047v-3.591"/>
        <path d="M8.227 34.357c-2.088-1.026-3.877-2.4-5.046-4.48-2.196-3.909-2.512-7.945-.599-12.073.773-1.669 2.224-2.622 3.758-3.353a13.909 13.909 0 0 1 3.703-1.178c.18-.03.414-.16.512.102.076.204-.134.3-.266.402-2.574 1.942-4.17 4.656-5.46 7.589-.511 1.16-.477 2.43-.347 3.672.354 3.412 1.513 6.482 3.653 9.126.044.052.062.129.092.193M2.643 8.043a7.263 7.263 0 0 1 1.86-2.738C6.44 3.495 8.64 2.089 11.335 1.58c2.673-.504 5.274-.304 7.746.856 2.117.991 3.289 2.78 4.03 4.859.362 1.019.674 2.07.674 3.275C17.578 2.906 10.48 2.728 2.643 8.043M33.036 28.847c-.862 1.959-2.192 3.512-3.98 4.632-3.985 2.497-8.174 2.96-12.487.916-2.069-.983-3.295-2.749-3.957-4.894-.271-.87-.607-1.73-.683-2.653-.012-.14-.105-.314.065-.397.173-.083.275.08.357.197 1.514 2.153 3.712 3.487 5.916 4.804 1.745 1.043 3.66 1.183 5.654 1.02 3.422-.277 6.457-1.446 9.115-3.625M25.107 23.637c.465-.374.898-.712 1.323-1.063 1.362-1.126 2.348-2.576 3.264-4.11 2.984-5.002 1.6-9.672-.93-14.259-.295-.536-.698-1.003-1.001-1.562a8.795 8.795 0 0 1 3.334 2.507c3.13 3.773 4.06 8.056 2.557 12.862-.872 2.783-2.854 4.267-5.397 5.083-.847.272-1.677.615-2.575.671-.165.01-.33.081-.575-.129"/>
        <path d="M22.464 36.23c-1.636.802-3.346.84-5.053.719-4.724-.336-9.07-3.796-10.522-8.385-.62-1.961-.126-3.848.61-5.672.377-.937.898-1.804 1.46-2.639.118-.174.207-.506.456-.417.293.104.163.438.134.672-.201 1.72-.163 3.427.185 5.126.495 2.41 1.201 4.696 3.132 6.38 2.677 2.331 5.723 3.784 9.244 4.164.118.012.236.035.354.052M9.25 11.195c.006-.145.116-.162.203-.182 1.942-.448 3.909-.586 5.912-.27.203.033.517.025.49.252-.03.26-.368.228-.59.195-2-.298-4.006-.269-6.015.005M25.225 10.571c.1.5.2.999.304 1.498.14.672.15 1.371.286 2.056.195.972-.23 1.894-.326 2.853-.012.128-.1.229-.205.194-.192-.064-.194-.291-.16-.485.154-.91.194-1.83.191-2.76-.002-1.116-.012-2.23-.09-3.356M7.929 18.468c.226-.588.589-1.093.999-1.564.718-.826 1.476-1.618 2.424-2.214.138-.087.304-.26.467-.066.135.157.072.36-.086.458-1.478.898-2.58 2.168-3.703 3.416-.006.007-.037-.01-.101-.03"/>
        <path d="M11.138 27.75c-.54-1.982-.733-4.02-.407-6.122.033-.214.056-.529.283-.48.226.049.19.347.157.57-.289 2.005-.232 4.008-.033 6.032M18.5 29.071a12.583 12.583 0 0 1-3.77-3.332c-.123-.162-.32-.407-.083-.58.226-.166.374.108.503.274a19.697 19.697 0 0 0 3.152 3.274c.08.064.193.105.198.364M17.179 7.929c.798.202 1.439.69 2.007 1.273.664.682 1.364 1.339 1.836 2.212.072.133.21.29.039.427-.142.115-.29.02-.395-.105-.114-.137-.214-.29-.316-.437-.839-1.207-1.797-2.282-2.947-3.147-.082-.061-.149-.147-.224-.223M25.107 26.555c-1.607.477-3.241.63-4.917.31-.164-.032-.376-.06-.368-.256.007-.178.186-.198.341-.17 1.64.295 3.29.192 4.944.116M29.071 18.5c-.783 1.676-2.01 2.936-3.567 3.886-.12.074-.255.138-.36-.017-.071-.108-.03-.23.042-.32.07-.09.151-.18.246-.237a12.976 12.976 0 0 0 3.64-3.312"/>
    </g>
</svg>
