<svg xmlns="http://www.w3.org/2000/svg" width="26" height="26" viewBox="0 0 26 26">
    <g fill="#0B63CE" fill-rule="nonzero">
        <path d="M21.263 0c.267.069.53.155.786.257a2.893 2.893 0 0 1 1.817 2.786c.02 2.963 0 5.92 0 8.889 0 .056 0 .116-.018.19a3.133 3.133 0 0 0-1.967.234V4.003H2.001c0 .082-.016.172-.016.257V20.7c0 .8.378 1.179 1.171 1.179h9.782c-.19.648-.37 1.287-.564 1.897a.221.221 0 0 1-.172.093H3.123A2.994 2.994 0 0 1 .139 21.77c-.051-.167-.093-.337-.139-.514V2.618a.958.958 0 0 0 .049-.131A2.904 2.904 0 0 1 1.766.273c.28-.11.567-.202.86-.273h18.637zM20.13 16.555l3.152 3.125a4.835 4.835 0 0 1-.163.173c-1.544 1.544-3.096 3.089-4.654 4.633a1.066 1.066 0 0 1-.422.258c-1.1.334-2.204.656-3.31.973a.788.788 0 0 1-.392.02.412.412 0 0 1-.278-.514c.343-1.202.693-2.394 1.048-3.576a.577.577 0 0 1 .15-.23c1.606-1.618 3.212-3.227 4.818-4.828a.157.157 0 0 1 .052-.034zm-2.39 7.342c-.093-.492-.181-.963-.276-1.429a.206.206 0 0 0-.116-.139c-.471-.105-.947-.2-1.431-.299-.175.598-.327 1.174-.515 1.738a.515.515 0 0 0 .172.564c.121.134.32.163.474.07l1.691-.505z"/>
        <path d="M18.882 11.95V13.9h-13.9V11.95zM18.88 7.98v1.954H4.979V7.98zM17.95 15.932c-.919.646-1.802 1.287-2.713 1.9a.672.672 0 0 1-.33.072H5.245c-.083 0-.165 0-.27-.02v-1.952H17.95zM24.237 18.535l-2.976-2.938c.44-.468.852-.957 1.32-1.38a.955.955 0 0 1 1.254.065c.561.53 1.11 1.076 1.637 1.64a1.03 1.03 0 0 1 0 1.38 2.44 2.44 0 0 1-.172.185l-1.063 1.048z"/>
    </g>
</svg>
