<svg xmlns="http://www.w3.org/2000/svg" width="30" height="27" viewBox="0 0 30 27">
    <g fill="#0B63CE" fill-rule="nonzero">
        <path d="M29.307 11.337a.65.65 0 0 0-.927-.023l-13.486 12.96-7.161-2.609v1.41l7.097 2.584a.65.65 0 0 0 .674-.143l13.78-13.242a.668.668 0 0 0 .023-.937z"/>
        <path d="M15.504 19.219l13.78-13.241a.668.668 0 0 0-.23-1.105L16.695.373a1.814 1.814 0 0 0-1.956.4C14.735.773.956 14.014.956 14.014c-.302.303-.532.67-.674 1.075-.686 1.852-.18 5.135 2.19 6.07l.28.102V19.83c-1.385-.719-1.717-2.994-1.242-4.275.34-.92.809-.75.961-.693l12.36 4.5a.65.65 0 0 0 .673-.143zM13.04 5.55l2.192-2.108a.372.372 0 0 1 .385-.082l9.303 3.39a.139.139 0 0 1 .048.23l-2.196 2.107a.372.372 0 0 1-.385.082l-9.3-3.39a.139.139 0 0 1-.048-.23z"/>
        <path d="M3.736 18.486v7.181l1.507-1.395L6.75 26.26v-6.677c0-.727.89-.994.89-.994l-3.014-1.097s-.89.2-.89.994z"/>
    </g>
</svg>
