<svg xmlns="http://www.w3.org/2000/svg" width="31" height="27" viewBox="0 0 31 27">
    <path fill="#0B63CE" fill-rule="nonzero" d="M9.724.333a2.522 2.522 0 0 0-2.53 2.53V3.93h12.58c2.173 0 3.968 1.795 3.968 3.968v10.05c0 .531-.11 1.042-.303 1.507l3.181 3.181v-6.475h1.068a2.522 2.522 0 0 0 2.53-2.53V2.863a2.522 2.522 0 0 0-2.53-2.53H9.724zM2.53 5.369A2.522 2.522 0 0 0 0 7.899v10.05a2.522 2.522 0 0 0 2.53 2.529h1.067v6.475l6.476-6.475h9.701a2.522 2.522 0 0 0 2.53-2.53V7.898a2.522 2.522 0 0 0-2.53-2.529H2.53zm3.586 6.115a1.439 1.439 0 1 1 0 2.878 1.439 1.439 0 0 1 0-2.878zm5.037 0a1.439 1.439 0 1 1 0 2.878 1.439 1.439 0 0 1 0-2.878zm5.036 0a1.439 1.439 0 1 1 0 2.878 1.439 1.439 0 0 1 0-2.878z"/>
</svg>
