<svg xmlns="http://www.w3.org/2000/svg" width="31" height="22" viewBox="0 0 31 22">
    <g fill="#0B63CE" fill-rule="nonzero">
        <path d="M15.178 1.336a.453.453 0 0 1 .742.148l7.453 17.559a.453.453 0 0 1-.409.637L9.11 19.564l-4.091 1.737a2.222 2.222 0 0 1-2.914-1.177L.368 16.032a2.222 2.222 0 0 1 1.178-2.913l4.09-1.737 9.542-10.046zM23.738 8.527a2.225 2.225 0 0 0-2.178-1.35 1.112 1.112 0 0 1-.133-2.219 4.453 4.453 0 0 1 4.356 2.7 4.451 4.451 0 0 1-1.09 5.016 1.112 1.112 0 0 1-1.5-1.64 2.225 2.225 0 0 0 .545-2.507z"/>
        <path d="M29.875 5.922a8.904 8.904 0 0 1-.66 8.193 1.111 1.111 0 0 1-1.883-1.179 6.68 6.68 0 0 0 .497-6.146 6.68 6.68 0 0 0-4.767-3.912 1.11 1.11 0 1 1 .462-2.173 8.904 8.904 0 0 1 6.35 5.217z"/>
    </g>
</svg>
